<svg width="338" height="40" viewBox="0 0 338 40" fill="none" xmlns="http://www.w3.org/2000/svg">
<path d="M0 21.3789C0 19.7221 1.34315 18.3789 3 18.3789H700V24.3789H2.99999C1.34313 24.3789 0 23.0358 0 21.3789Z" fill="#2D74C4"/>
<path fill-rule="evenodd" clip-rule="evenodd" d="M284.999 30.6646C290.697 30.6646 295.286 26.089 295.286 20.3891C295.286 14.6892 290.697 10.0931 284.999 10.0931C279.304 10.0931 274.715 14.6892 274.715 20.3891C274.715 26.089 279.304 30.6646 284.999 30.6646Z" fill="#2D74C4"/>
<path d="M284.879 24.9428C286.709 24.9428 288.069 23.775 288.069 22.1619C288.069 20.7172 286.938 19.7903 285.674 19.6338V19.6097L287.865 17.4187V16.3713H282.447V17.6474H286.071L283.892 19.8264V20.8376C284.133 20.7895 284.398 20.7654 284.65 20.7654C285.613 20.7654 286.577 21.2229 286.577 22.2221C286.577 23.0166 285.878 23.6426 284.879 23.6426C284.121 23.6426 283.471 23.3657 282.881 22.824L281.93 23.7871C282.652 24.5094 283.699 24.9428 284.879 24.9428Z" fill="white"/>
<rect x="273" y="8.37891" width="24" height="24" rx="12" stroke="white" stroke-width="3.6"/>
</svg>
