<svg width="202" height="228" viewBox="0 0 202 228" fill="none" xmlns="http://www.w3.org/2000/svg">
<g filter="url(#filter0_d_476_5198)">
<path d="M148 12.5H54C33.0132 12.5 16 29.5132 16 50.5V144.5C16 165.487 33.0132 182.5 54 182.5H57.2599C67.3381 182.5 77.0036 186.504 84.1299 193.63L97.1716 206.672C98.7337 208.234 101.266 208.234 102.828 206.672L115.87 193.63C122.996 186.504 132.662 182.5 142.74 182.5H148C168.987 182.5 186 165.487 186 144.5V50.5C186 29.5132 168.987 12.5 148 12.5Z" fill="white"/>
<path d="M108.244 77.0773C107.598 76.6878 106.875 76.4282 106.023 76.2984C105.171 76.1686 104.318 76.0907 103.389 76.0907H98.3988C97.7601 76.0907 97.2423 76.6085 97.2423 77.2472V85.7861C97.2423 86.4248 97.7601 86.9426 98.3988 86.9426H103.389C104.292 86.9426 105.171 86.8647 106.023 86.7349C106.849 86.6051 107.598 86.3455 108.244 85.956C108.889 85.5666 109.406 85.0214 109.767 84.3205C110.155 83.6195 110.335 82.6849 110.335 81.5426C110.335 80.4003 110.155 79.4657 109.767 78.7647C109.406 78.0119 108.889 77.4667 108.244 77.0773Z" fill="url(#paint0_linear_476_5198)"/>
<path d="M101.013 58.4877C84.7955 58.4877 71.6765 71.702 71.6765 87.9797C71.6765 104.283 84.8213 117.472 101.013 117.472C117.231 117.472 130.35 104.257 130.35 87.9797C130.35 71.702 117.231 58.4877 101.013 58.4877ZM117.335 85.799C116.896 87.2009 116.147 88.447 115.165 89.5115C114.184 90.6018 112.893 91.4586 111.318 92.1076C109.742 92.7566 107.831 93.0941 105.584 93.0941H98.4254C97.7867 93.0941 97.2689 93.6119 97.2689 94.2506V104.892C97.2689 105.531 96.7511 106.049 96.1124 106.049H90.523C89.8843 106.049 89.3665 105.531 89.3665 104.892V71.0672C89.3665 70.4285 89.8843 69.9107 90.523 69.9107H105.584C107.831 69.9107 109.742 70.2482 111.318 70.8972C112.893 71.5462 114.184 72.4289 115.165 73.4933C116.147 74.5837 116.87 75.8039 117.335 77.1798C117.8 78.5558 118.006 80.0096 118.006 81.4894C118.032 82.9692 117.8 84.3971 117.335 85.799Z" fill="url(#paint1_linear_476_5198)"/>
<path d="M146.026 88.3697C146.026 63.3689 125.883 43.0931 101.013 43.0931C76.1441 43.0931 55.975 63.3689 55.975 88.3697C55.975 100.857 61.0108 112.176 69.1198 120.328C69.8171 121.029 70.7209 121.418 71.7539 121.418C73.7683 121.418 75.421 119.757 75.421 117.732C75.421 116.693 74.982 115.759 74.3106 115.058C67.5445 108.256 63.3092 98.7542 63.3092 88.3437C63.3092 67.4448 80.2245 50.4402 101.013 50.4402C121.802 50.4402 138.718 67.4448 138.718 88.3437C138.718 98.8061 134.482 108.282 127.665 115.136L96.6333 146.356C96.1848 146.808 96.185 147.536 96.6336 147.987L100.194 151.566C100.646 152.021 101.381 152.021 101.833 151.566L132.881 120.354C141.016 112.15 146.026 100.857 146.026 88.3697Z" fill="url(#paint2_linear_476_5198)"/>
<path fill-rule="evenodd" clip-rule="evenodd" d="M106.131 87.426L106.128 87.4265C105.246 87.5608 104.333 87.6421 103.389 87.6421H98.3988C97.3737 87.6421 96.5427 86.8112 96.5427 85.7861V77.2472C96.5427 76.2221 97.3737 75.3912 98.3988 75.3912H103.389C104.359 75.3912 105.247 75.4726 106.128 75.6068C107.063 75.7493 107.875 76.0377 108.605 76.4782C109.36 76.9337 109.968 77.5752 110.389 78.4441C110.849 79.2861 111.035 80.347 111.035 81.5426C111.035 82.7424 110.848 83.8066 110.384 84.6501C109.964 85.4619 109.359 86.1004 108.605 86.5551C107.872 86.9974 107.035 87.2841 106.131 87.426ZM109.767 84.3205C110.155 83.6195 110.335 82.6849 110.335 81.5426C110.335 80.4003 110.155 79.4657 109.767 78.7647C109.406 78.0119 108.889 77.4667 108.244 77.0773C107.598 76.6878 106.875 76.4282 106.023 76.2984C105.171 76.1686 104.318 76.0907 103.389 76.0907H98.3988C97.7601 76.0907 97.2423 76.6085 97.2423 77.2472V85.7861C97.2423 86.4248 97.7601 86.9426 98.3988 86.9426H103.389C104.292 86.9426 105.171 86.8647 106.023 86.7349C106.849 86.6051 107.598 86.3455 108.244 85.956C108.889 85.5666 109.406 85.0214 109.767 84.3205ZM116.671 85.5788C117.112 84.2474 117.331 82.898 117.307 81.5016L117.307 81.4894C117.307 80.0743 117.109 78.6975 116.672 77.4038C116.239 76.1223 115.567 74.9855 114.648 73.9644C113.745 72.9853 112.543 72.1586 111.051 71.544C109.58 70.938 107.764 70.6103 105.584 70.6103H90.523C90.2706 70.6103 90.0661 70.8148 90.0661 71.0672V104.892C90.0661 105.145 90.2706 105.349 90.523 105.349H96.1124C96.3647 105.349 96.5693 105.145 96.5693 104.892V94.2506C96.5693 93.2255 97.4003 92.3945 98.4254 92.3945H105.584C107.764 92.3945 109.58 92.0668 111.051 91.4608C112.551 90.8429 113.748 90.0406 114.645 89.0435L114.651 89.0372C115.568 88.0432 116.261 86.8863 116.667 85.5899L116.671 85.5788ZM115.165 73.4933C116.147 74.5837 116.87 75.8039 117.335 77.1798C117.8 78.5558 118.006 80.0096 118.006 81.4894C118.032 82.9692 117.8 84.3971 117.335 85.799C116.896 87.2009 116.147 88.447 115.165 89.5115C114.184 90.6018 112.893 91.4586 111.318 92.1076C109.742 92.7566 107.831 93.0941 105.584 93.0941H98.4254C97.7867 93.0941 97.2689 93.6119 97.2689 94.2506V104.892C97.2689 105.531 96.7511 106.049 96.1124 106.049H90.523C89.8843 106.049 89.3665 105.531 89.3665 104.892V71.0672C89.3665 70.4285 89.8843 69.9107 90.523 69.9107H105.584C107.831 69.9107 109.742 70.2482 111.318 70.8972C112.893 71.5462 114.184 72.4289 115.165 73.4933ZM74.8158 114.574C75.5951 115.387 76.1206 116.49 76.1206 117.732C76.1206 120.14 74.1581 122.118 71.7539 122.118C70.5326 122.118 69.4509 121.653 68.6238 120.821C60.389 112.543 55.2754 101.048 55.2754 88.3697C55.2754 62.986 75.7543 42.3936 101.013 42.3936C126.273 42.3936 146.726 62.9866 146.726 88.3697C146.726 101.048 141.638 112.517 133.378 120.847L102.329 152.059C101.604 152.789 100.423 152.789 99.6975 152.059L96.1377 148.481C95.4176 147.757 95.4174 146.587 96.1371 145.863L127.168 114.643C133.861 107.914 138.018 98.6137 138.018 88.3437C138.018 67.8277 121.413 51.1398 101.013 51.1398C80.6143 51.1398 64.0088 67.8277 64.0088 88.3437C64.0088 98.5624 68.166 107.889 74.8066 114.565L74.8158 114.574ZM70.9769 87.9798C70.9769 71.3195 84.4053 57.7881 101.013 57.7881C117.622 57.7881 131.05 71.3195 131.05 87.9798C131.05 104.64 117.622 118.171 101.013 118.171C84.4319 118.171 70.9769 104.667 70.9769 87.9798ZM127.665 115.136C134.482 108.282 138.718 98.8061 138.718 88.3437C138.718 67.4448 121.802 50.4402 101.013 50.4402C80.2245 50.4402 63.3092 67.4448 63.3092 88.3437C63.3092 98.7542 67.5445 108.256 74.3106 115.058C74.982 115.759 75.421 116.693 75.421 117.732C75.421 119.757 73.7683 121.418 71.7539 121.418C70.7209 121.418 69.8171 121.029 69.1198 120.328C61.0108 112.176 55.975 100.857 55.975 88.3697C55.975 63.3689 76.1441 43.0931 101.013 43.0931C125.883 43.0931 146.026 63.3689 146.026 88.3697C146.026 100.857 141.016 112.15 132.881 120.354L101.833 151.566C101.381 152.021 100.646 152.021 100.194 151.566L96.6336 147.987C96.185 147.536 96.1848 146.808 96.6333 146.356L127.665 115.136ZM101.013 58.4877C84.7955 58.4877 71.6765 71.702 71.6765 87.9797C71.6765 104.283 84.8213 117.472 101.013 117.472C117.231 117.472 130.35 104.257 130.35 87.9797C130.35 71.702 117.231 58.4877 101.013 58.4877Z" fill="url(#paint3_linear_476_5198)"/>
</g>
<defs>
<filter id="filter0_d_476_5198" x="0" y="0.5" width="202" height="227.343" filterUnits="userSpaceOnUse" color-interpolation-filters="sRGB">
<feFlood flood-opacity="0" result="BackgroundImageFix"/>
<feColorMatrix in="SourceAlpha" type="matrix" values="0 0 0 0 0 0 0 0 0 0 0 0 0 0 0 0 0 0 127 0" result="hardAlpha"/>
<feOffset dy="4"/>
<feGaussianBlur stdDeviation="8"/>
<feComposite in2="hardAlpha" operator="out"/>
<feColorMatrix type="matrix" values="0 0 0 0 0 0 0 0 0 0 0 0 0 0 0 0 0 0 0.1 0"/>
<feBlend mode="normal" in2="BackgroundImageFix" result="effect1_dropShadow_476_5198"/>
<feBlend mode="normal" in="SourceGraphic" in2="effect1_dropShadow_476_5198" result="shape"/>
</filter>
<linearGradient id="paint0_linear_476_5198" x1="101.001" y1="42.3936" x2="101.001" y2="152.606" gradientUnits="userSpaceOnUse">
<stop stop-color="#68AD45"/>
<stop offset="1" stop-color="#4C882D"/>
</linearGradient>
<linearGradient id="paint1_linear_476_5198" x1="101.001" y1="42.3936" x2="101.001" y2="152.606" gradientUnits="userSpaceOnUse">
<stop stop-color="#68AD45"/>
<stop offset="1" stop-color="#4C882D"/>
</linearGradient>
<linearGradient id="paint2_linear_476_5198" x1="101.001" y1="42.3936" x2="101.001" y2="152.606" gradientUnits="userSpaceOnUse">
<stop stop-color="#68AD45"/>
<stop offset="1" stop-color="#4C882D"/>
</linearGradient>
<linearGradient id="paint3_linear_476_5198" x1="101.001" y1="42.3936" x2="101.001" y2="152.606" gradientUnits="userSpaceOnUse">
<stop stop-color="#68AD45"/>
<stop offset="1" stop-color="#4C882D"/>
</linearGradient>
</defs>
</svg>
