<svg width="756" height="47" viewBox="0 0 756 47" fill="none" xmlns="http://www.w3.org/2000/svg">
<path d="M0 23.8789C0 21.1175 2.23858 18.8789 5 18.8789H757V28.8789H5.00001C2.23858 28.8789 0 26.6403 0 23.8789Z" fill="#2D74C4"/>
<path fill-rule="evenodd" clip-rule="evenodd" d="M715.998 40.5218C725.494 40.5218 733.143 32.8958 733.143 23.396C733.143 13.8961 725.494 6.23608 715.998 6.23608C706.506 6.23608 698.857 13.8961 698.857 23.396C698.857 32.8958 706.506 40.5218 715.998 40.5218Z" fill="#2D74C4"/>
<path d="M715.799 30.9855C718.848 30.9855 721.116 29.0393 721.116 26.3507C721.116 23.943 719.23 22.3981 717.123 22.1372V22.0971L720.774 18.4454V16.6998H711.746V18.8266H717.785L714.153 22.4583V24.1436C714.555 24.0634 714.996 24.0233 715.417 24.0233C717.022 24.0233 718.628 24.7857 718.628 26.451C718.628 27.7753 717.464 28.8186 715.799 28.8186C714.534 28.8186 713.451 28.3571 712.468 27.4542L710.883 29.0594C712.087 30.2632 713.832 30.9855 715.799 30.9855Z" fill="white"/>
<rect x="696" y="3.37891" width="40" height="40" rx="20" stroke="white" stroke-width="6"/>
</svg>
