<svg width="120" height="36" viewBox="0 0 120 36" fill="none" xmlns="http://www.w3.org/2000/svg">
<g clip-path="url(#clip0_774_7734)">
<path fill-rule="evenodd" clip-rule="evenodd" d="M0 30.7389V4.72906C0 2.11727 2.11309 0 4.71972 0H114.689C117.296 0 119.409 2.11727 119.409 4.72906V30.7389C119.409 33.3507 117.296 35.468 114.689 35.468H4.71972C2.11309 35.468 0 33.3507 0 30.7389ZM0.707958 30.7389V4.72906C0.707958 2.50904 2.50408 0.70936 4.71972 0.70936H114.689C116.905 0.70936 118.701 2.50904 118.701 4.72906V30.7389C118.701 32.9589 116.905 34.7586 114.689 34.7586H4.71972C2.50408 34.7586 0.707958 32.9589 0.707958 30.7389Z" fill="#332B26"/>
<path d="M43.0015 26.4821L41.9921 23.6696H38.1274L37.1387 26.4821H35.3965L39.1783 16.3127H40.9758L44.7576 26.4821H43.0015ZM41.5565 22.2425L40.6094 19.4855C40.5402 19.3007 40.4434 19.0098 40.319 18.6126C40.1992 18.2154 40.1162 17.9245 40.0701 17.7398C39.9457 18.3078 39.7636 18.929 39.5239 19.6032L38.6113 22.2425H41.5565Z" fill="#332B26"/>
<path d="M49.5852 26.6206C48.6173 26.6206 47.866 26.2719 47.3314 25.5746H47.2346C47.2991 26.2211 47.3314 26.6137 47.3314 26.7522V29.8903H45.7067V18.8204H47.0203C47.0571 18.9636 47.1332 19.3053 47.2484 19.8457H47.3314C47.8384 19.0698 48.5989 18.6819 49.6129 18.6819C50.567 18.6819 51.309 19.0282 51.8391 19.721C52.3737 20.4137 52.6411 21.3859 52.6411 22.6374C52.6411 23.8889 52.3691 24.8657 51.8253 25.5677C51.286 26.2696 50.5393 26.6206 49.5852 26.6206ZM49.1912 20.0119C48.5459 20.0119 48.0734 20.2013 47.7739 20.58C47.4789 20.9587 47.3314 21.5637 47.3314 22.3949V22.6374C47.3314 23.5703 47.4789 24.2468 47.7739 24.6671C48.0688 25.0827 48.5505 25.2906 49.2188 25.2906C49.7811 25.2906 50.2144 25.0597 50.5186 24.5978C50.8228 24.136 50.9749 23.4779 50.9749 22.6235C50.9749 21.7645 50.8228 21.1157 50.5186 20.677C50.219 20.2336 49.7765 20.0119 49.1912 20.0119Z" fill="#332B26"/>
<path d="M58.1947 26.6206C57.2268 26.6206 56.4755 26.2719 55.9408 25.5746H55.844C55.9085 26.2211 55.9408 26.6137 55.9408 26.7522V29.8903H54.3161V18.8204H55.6297C55.6666 18.9636 55.7426 19.3053 55.8578 19.8457H55.9408C56.4478 19.0698 57.2083 18.6819 58.2223 18.6819C59.1764 18.6819 59.9185 19.0282 60.4485 19.721C60.9832 20.4137 61.2505 21.3859 61.2505 22.6374C61.2505 23.8889 60.9786 24.8657 60.4347 25.5677C59.8954 26.2696 59.1487 26.6206 58.1947 26.6206ZM57.8006 20.0119C57.1553 20.0119 56.6829 20.2013 56.3833 20.58C56.0883 20.9587 55.9408 21.5637 55.9408 22.3949V22.6374C55.9408 23.5703 56.0883 24.2468 56.3833 24.6671C56.6783 25.0827 57.1599 25.2906 57.8282 25.2906C58.3905 25.2906 58.8238 25.0597 59.128 24.5978C59.4322 24.136 59.5843 23.4779 59.5843 22.6235C59.5843 21.7645 59.4322 21.1157 59.128 20.677C58.8284 20.2336 58.3859 20.0119 57.8006 20.0119Z" fill="#332B26"/>
<path d="M67.2327 20.9887H70.9523V26.0734C70.3439 26.2719 69.7585 26.4128 69.1962 26.4959C68.6385 26.579 68.0347 26.6206 67.3848 26.6206C65.8546 26.6206 64.6747 26.168 63.8451 25.2629C63.0154 24.3531 62.6006 23.0715 62.6006 21.4182C62.6006 19.7879 63.0684 18.5133 64.0041 17.5943C64.9397 16.6706 66.228 16.2088 67.8688 16.2088C68.9243 16.2088 69.9245 16.412 70.8693 16.8184L70.2886 18.197C69.4682 17.8183 68.6477 17.6289 67.8273 17.6289C66.7488 17.6289 65.8961 17.9684 65.2693 18.6472C64.6424 19.3261 64.329 20.2544 64.329 21.432C64.329 22.6697 64.6102 23.6118 65.1725 24.2584C65.7394 24.9003 66.5529 25.2213 67.613 25.2213C68.1476 25.2213 68.7192 25.1543 69.3276 25.0204V22.4088H67.2327V20.9887Z" fill="#332B26"/>
<path d="M77.7849 26.4821L77.46 25.4153H77.4047C77.0359 25.8817 76.6649 26.2004 76.2916 26.3712C75.9182 26.5375 75.4389 26.6206 74.8535 26.6206C74.1022 26.6206 73.5146 26.4174 73.0905 26.011C72.6711 25.6046 72.4614 25.0296 72.4614 24.2861C72.4614 23.4964 72.7541 22.9006 73.3394 22.4988C73.9248 22.0971 74.8166 21.8777 76.015 21.8407L77.3355 21.7992V21.3905C77.3355 20.9009 77.2203 20.5361 76.9898 20.296C76.764 20.0512 76.4114 19.9288 75.932 19.9288C75.5403 19.9288 75.1646 19.9865 74.8051 20.102C74.4456 20.2174 74.0999 20.3537 73.7681 20.5107L73.2426 19.3469C73.6575 19.1298 74.1115 18.9659 74.6046 18.8551C75.0978 18.7396 75.5633 18.6819 76.0012 18.6819C76.9737 18.6819 77.7066 18.8943 78.1997 19.3192C78.6975 19.7441 78.9464 20.4114 78.9464 21.3212V26.4821H77.7849ZM75.3651 25.3737C75.9551 25.3737 76.4275 25.2097 76.7824 24.8818C77.1419 24.5493 77.3217 24.0852 77.3217 23.4895V22.8244L76.34 22.866C75.5748 22.8937 75.0171 23.023 74.6669 23.2539C74.3212 23.4802 74.1483 23.8289 74.1483 24.3C74.1483 24.6417 74.2497 24.9072 74.4525 25.0966C74.6553 25.2813 74.9595 25.3737 75.3651 25.3737Z" fill="#332B26"/>
<path d="M82.6264 26.4821H81.0017V15.7031H82.6264V26.4821Z" fill="#332B26"/>
<path d="M86.3686 26.4821H84.7439V15.7031H86.3686V26.4821Z" fill="#332B26"/>
<path d="M91.8254 26.6206C90.6363 26.6206 89.7052 26.2742 89.0323 25.5815C88.364 24.8842 88.0298 23.9259 88.0298 22.7067C88.0298 21.4551 88.3409 20.4714 88.9632 19.7556C89.5854 19.0398 90.4404 18.6819 91.5281 18.6819C92.5375 18.6819 93.3349 18.989 93.9203 19.6032C94.5056 20.2174 94.7983 21.0626 94.7983 22.1386V23.0184H89.7029C89.726 23.7619 89.9265 24.3346 90.3044 24.7364C90.6824 25.1335 91.2147 25.3321 91.9015 25.3321C92.3532 25.3321 92.7726 25.2906 93.1598 25.2074C93.5515 25.1197 93.971 24.9765 94.418 24.7779V26.1011C94.0217 26.2904 93.6207 26.4243 93.2151 26.5028C92.8095 26.5814 92.3463 26.6206 91.8254 26.6206ZM91.5281 19.9149C91.0119 19.9149 90.5971 20.0789 90.2837 20.4068C89.9749 20.7347 89.7905 21.2127 89.7306 21.8407H93.2012C93.192 21.2081 93.0399 20.7301 92.7449 20.4068C92.45 20.0789 92.0444 19.9149 91.5281 19.9149Z" fill="#332B26"/>
<path d="M100.31 18.6819C100.638 18.6819 100.907 18.705 101.119 18.7512L100.96 20.2682C100.73 20.2128 100.49 20.1851 100.241 20.1851C99.5914 20.1851 99.0636 20.3976 98.658 20.8224C98.2571 21.2473 98.0566 21.7992 98.0566 22.4781V26.4821H96.4319V18.8204H97.704L97.9183 20.1713H98.0013C98.2547 19.7141 98.5843 19.3515 98.9899 19.0837C99.4001 18.8158 99.8403 18.6819 100.31 18.6819Z" fill="#332B26"/>
<path d="M101.17 18.8204H102.94L104.495 23.1639C104.73 23.7827 104.887 24.3646 104.965 24.9096H105.021C105.062 24.6556 105.138 24.3484 105.249 23.9882C105.359 23.6234 105.945 21.9008 107.005 18.8204H108.761L105.491 27.5004C104.896 29.0937 103.905 29.8903 102.518 29.8903C102.158 29.8903 101.808 29.8511 101.467 29.7725V28.4841C101.711 28.5395 101.99 28.5672 102.303 28.5672C103.087 28.5672 103.638 28.1123 103.956 27.2025L104.239 26.4821L101.17 18.8204Z" fill="#332B26"/>
<path d="M40.5523 9.99329C40.5523 10.8176 40.346 11.4584 39.9335 11.9156C39.5233 12.3728 38.9414 12.6014 38.1878 12.6014C37.425 12.6014 36.8385 12.3751 36.4283 11.9226C36.0204 11.4677 35.8164 10.8223 35.8164 9.98636C35.8164 9.15046 36.0215 8.50853 36.4317 8.06056C36.8442 7.61259 37.4319 7.38861 38.1947 7.38861C38.946 7.38861 39.5267 7.61606 39.9369 8.07095C40.3472 8.52585 40.5523 9.16663 40.5523 9.99329ZM36.6944 9.99329C36.6944 10.6167 36.82 11.0901 37.0712 11.4134C37.3224 11.7344 37.6946 11.8948 38.1878 11.8948C38.6787 11.8948 39.0485 11.7355 39.2974 11.4169C39.5486 11.0982 39.6742 10.6237 39.6742 9.99329C39.6742 9.37214 39.5498 8.90108 39.3009 8.58011C39.0543 8.25914 38.6856 8.09866 38.1947 8.09866C37.6992 8.09866 37.3247 8.25914 37.0712 8.58011C36.82 8.90108 36.6944 9.37214 36.6944 9.99329Z" fill="#332B26"/>
<path d="M43.3834 12.5322H42.5572V8.17833H41.0708V7.46827H44.8698V8.17833H43.3834V12.5322Z" fill="#332B26"/>
<path d="M49.5262 12.5322H48.5548L46.4738 9.96558V12.5322H45.6476V7.46827H46.4738V9.92055L48.5202 7.46827H49.4259L47.3864 9.91362L49.5262 12.5322Z" fill="#332B26"/>
<path d="M53.543 8.99922C53.543 9.528 53.3702 9.93325 53.0245 10.215C52.6788 10.4967 52.1868 10.6375 51.5484 10.6375H51.023V12.5322H50.1968V7.46827H51.6521C52.2836 7.46827 52.756 7.59758 53.0694 7.8562C53.3851 8.11483 53.543 8.49583 53.543 8.99922ZM51.023 9.94133H51.462C51.886 9.94133 52.1971 9.86744 52.3953 9.71966C52.5935 9.57188 52.6926 9.34096 52.6926 9.02692C52.6926 8.73598 52.6039 8.51892 52.4265 8.37576C52.249 8.23259 51.9725 8.16101 51.5968 8.16101H51.023V9.94133Z" fill="#332B26"/>
<path d="M59.0394 9.99329C59.0394 10.8176 58.8331 11.4584 58.4206 11.9156C58.0104 12.3728 57.4285 12.6014 56.6749 12.6014C55.9121 12.6014 55.3256 12.3751 54.9154 11.9226C54.5075 11.4677 54.3035 10.8223 54.3035 9.98636C54.3035 9.15046 54.5086 8.50853 54.9188 8.06056C55.3313 7.61259 55.919 7.38861 56.6818 7.38861C57.4331 7.38861 58.0138 7.61606 58.424 8.07095C58.8343 8.52585 59.0394 9.16663 59.0394 9.99329ZM55.1815 9.99329C55.1815 10.6167 55.3071 11.0901 55.5583 11.4134C55.8095 11.7344 56.1817 11.8948 56.6749 11.8948C57.1658 11.8948 57.5356 11.7355 57.7845 11.4169C58.0357 11.0982 58.1613 10.6237 58.1613 9.99329C58.1613 9.37214 58.0369 8.90108 57.788 8.58011C57.5414 8.25914 57.1727 8.09866 56.6818 8.09866C56.1863 8.09866 55.8118 8.25914 55.5583 8.58011C55.3071 8.90108 55.1815 9.37214 55.1815 9.99329Z" fill="#332B26"/>
<path d="M60.1248 7.46827H60.8818V10.1007C60.8818 10.3754 60.8749 10.6537 60.8611 10.9354C60.8473 11.2148 60.8369 11.4042 60.83 11.5034H60.8611L63.4434 7.46827H64.4078V12.5322H63.6473V9.92055C63.6473 9.52108 63.6692 9.03616 63.713 8.46581H63.6853L61.0927 12.5322H60.1248V7.46827ZM62.2922 7.06302C61.8037 7.06302 61.4453 6.97528 61.2172 6.79979C60.9913 6.62198 60.8657 6.32642 60.8404 5.91309H61.5767C61.5905 6.07934 61.6216 6.20865 61.67 6.30102C61.7207 6.39338 61.7921 6.46035 61.8843 6.50191C61.9788 6.54116 62.1217 6.56079 62.313 6.56079C62.5388 6.56079 62.7105 6.51115 62.828 6.41185C62.9456 6.31025 63.017 6.144 63.0424 5.91309H63.7925C63.7579 6.31025 63.6185 6.6012 63.3742 6.78593C63.1299 6.97066 62.7693 7.06302 62.2922 7.06302Z" fill="#332B26"/>
<path d="M67.4775 12.5322H66.6513V8.17833H65.1649V7.46827H68.9639V8.17833H67.4775V12.5322Z" fill="#332B26"/>
<path d="M72.6005 12.5322H69.7417V7.46827H72.6005V8.16793H70.5679V9.54648H72.4726V10.2392H70.5679V11.829H72.6005V12.5322Z" fill="#332B26"/>
<path d="M75.5353 7.46827H77.0356C77.7316 7.46827 78.234 7.56987 78.5428 7.77308C78.8539 7.97628 79.0094 8.29725 79.0094 8.73598C79.0094 9.03154 78.9334 9.27746 78.7813 9.47374C78.6292 9.67001 78.4103 9.79355 78.1245 9.84435V9.87899C78.4794 9.94595 78.7398 10.0787 78.9057 10.2773C79.074 10.4736 79.1581 10.7403 79.1581 11.0774C79.1581 11.5323 78.9991 11.8891 78.681 12.1477C78.3653 12.404 77.9251 12.5322 77.3605 12.5322H75.5353V7.46827ZM76.3615 9.56033H77.1566C77.5023 9.56033 77.7546 9.50607 77.9136 9.39754C78.0726 9.2867 78.1521 9.09966 78.1521 8.83642C78.1521 8.59858 78.0657 8.42656 77.8929 8.32034C77.7223 8.21412 77.4504 8.16101 77.0771 8.16101H76.3615V9.56033ZM76.3615 10.2323V11.836H77.2395C77.5852 11.836 77.8456 11.7702 78.0208 11.6385C78.1982 11.5046 78.287 11.2945 78.287 11.0081C78.287 10.7449 78.1971 10.5498 78.0173 10.4228C77.8376 10.2958 77.5645 10.2323 77.1981 10.2323H76.3615Z" fill="#332B26"/>
<path d="M18.3922 19.5291H19.2922L18.8407 18.4769L18.3922 19.5291Z" fill="#332B26"/>
<path fill-rule="evenodd" clip-rule="evenodd" d="M14.9036 6.50098C10.2979 6.50098 8.61328 8.1886 8.61328 12.8025V22.6625C8.61328 27.2764 10.2979 28.964 14.9036 28.964H24.7386C29.3442 28.964 31.0319 27.2764 31.0319 22.6625V12.8025C31.0319 8.1886 29.3474 6.50098 24.7416 6.50098H14.9036ZM18.1706 20.0593L17.9036 20.6716H17.2956L18.5884 17.7327H19.1139L20.4015 20.6716H19.7773L19.5137 20.0593H18.1706ZM27.9534 20.6694H28.541V17.7325H27.9534V20.6694ZM25.6148 19.4078H26.6979V18.8723H25.6148V18.2703H27.1871V17.7347H25.0274V20.6714H27.2437V20.1357H25.6148V19.4078ZM23.2801 19.7548L22.614 17.7325H22.1278L21.4617 19.7548L20.8134 17.7341H20.1795L21.2026 20.6732H21.6954L22.3626 18.7426L23.0298 20.6732H23.527L24.5474 17.7341H23.9299L23.2801 19.7548ZM16.3986 19.4159C16.3986 19.894 16.1617 20.1494 15.7314 20.1494C15.2988 20.1494 15.0606 19.8866 15.0606 19.3955V17.7345H14.4651V19.4159C14.4651 20.2429 14.9238 20.7172 15.7233 20.7172C16.5307 20.7172 16.9936 20.2339 16.9936 19.3913V17.7327H16.3986V19.4159ZM13.0443 17.7327H13.6395V20.6734H13.0443V19.4791H11.6998V20.6734H11.1043V17.7327H11.6998V18.9188H13.0443V17.7327ZM16.0862 10.2448C16.0862 12.3092 17.7621 13.9887 19.8226 13.9887C21.8829 13.9887 23.5591 12.3092 23.5591 10.2448H23.0313C23.0313 12.0174 21.5917 13.4597 19.8226 13.4597C18.0535 13.4597 16.6139 12.0174 16.6139 10.2448H16.0862Z" fill="#332B26"/>
</g>
<defs>
<clipPath id="clip0_774_7734">
<rect width="119.409" height="35.468" fill="white"/>
</clipPath>
</defs>
</svg>
