<svg width="120" height="36" viewBox="0 0 120 36" fill="none" xmlns="http://www.w3.org/2000/svg">
<path d="M115.556 0.70936C116.546 0.70936 117.495 1.10172 118.195 1.80013C118.896 2.49855 119.289 3.44579 119.289 4.4335V31.0345C119.289 32.0222 118.896 32.9694 118.195 33.6678C117.495 34.3663 116.546 34.7586 115.556 34.7586H4.44444C3.4543 34.7586 2.50471 34.3663 1.80458 33.6678C1.10444 32.9694 0.711111 32.0222 0.711111 31.0345V4.4335C0.711111 3.44579 1.10444 2.49855 1.80458 1.80013C2.50471 1.10172 3.4543 0.70936 4.44444 0.70936H115.556ZM115.556 0H4.44444C3.2657 0 2.13524 0.467099 1.30175 1.29854C0.468253 2.12998 0 3.25766 0 4.4335V31.0345C0 32.2103 0.468253 33.338 1.30175 34.1694C2.13524 35.0009 3.2657 35.468 4.44444 35.468H115.556C116.734 35.468 117.865 35.0009 118.698 34.1694C119.532 33.338 120 32.2103 120 31.0345V4.4335C120 3.25766 119.532 2.12998 118.698 1.29854C117.865 0.467099 116.734 0 115.556 0Z" fill="#332B26"/>
<path d="M28.5478 17.1253C28.5233 14.4023 30.7829 13.0776 30.8862 13.0159C29.6065 11.1547 27.623 10.9004 26.926 10.8801C25.26 10.7052 23.6441 11.8745 22.7954 11.8745C21.9299 11.8745 20.623 10.897 19.2146 10.9258C17.4021 10.9536 15.7066 12.0004 14.7766 13.6259C12.8575 16.9403 14.2888 21.8108 16.1275 24.4899C17.0473 25.8019 18.122 27.2669 19.5288 27.2154C20.9051 27.1588 21.4192 26.3401 23.08 26.3401C24.7256 26.3401 25.2084 27.2154 26.6431 27.1824C28.1201 27.1588 29.0501 25.8644 29.9377 24.5406C31.0006 23.0367 31.4274 21.5557 31.4444 21.4797C31.4097 21.4678 28.5758 20.389 28.5478 17.1253Z" fill="#332B26"/>
<path d="M25.8382 9.11769C26.5784 8.19426 27.0849 6.93797 26.9443 5.66309C25.8729 5.7104 24.5331 6.40233 23.7615 7.30548C23.0789 8.10133 22.4691 9.40578 22.6266 10.6325C23.8301 10.7221 25.0658 10.0268 25.8382 9.11769Z" fill="#332B26"/>
<path d="M48.4646 27.0255H46.5412L45.4876 23.723H41.8254L40.8218 27.0255H38.9492L42.5775 15.7822H44.8185L48.4646 27.0255ZM45.17 22.3374L44.2172 19.4016C44.1164 19.1017 43.9275 18.3954 43.6489 17.2835H43.615C43.5041 17.7617 43.3254 18.468 43.0797 19.4016L42.1439 22.3374H45.17Z" fill="#332B26"/>
<path d="M57.7953 22.8733C57.7953 24.2521 57.4218 25.3419 56.6748 26.142C56.0057 26.8542 55.1749 27.2099 54.1831 27.2099C53.1126 27.2099 52.3436 26.8263 51.8752 26.0592H51.8413V30.33H50.0357V21.5883C50.0357 20.7214 50.0128 19.8318 49.9688 18.9194H51.5568L51.6575 20.2044H51.6914C52.2936 19.2362 53.2074 18.7529 54.4338 18.7529C55.3925 18.7529 56.1929 19.1306 56.8332 19.8867C57.4752 20.6437 57.7953 21.6389 57.7953 22.8733ZM55.9558 22.9392C55.9558 22.1501 55.7779 21.4995 55.4205 20.9876C55.0301 20.4536 54.5058 20.1866 53.8486 20.1866C53.4031 20.1866 52.9982 20.3353 52.6366 20.6285C52.2741 20.9242 52.037 21.3103 51.926 21.7885C51.8701 22.0115 51.8422 22.194 51.8422 22.3376V23.6894C51.8422 24.2791 52.0234 24.7767 52.3859 25.1831C52.7484 25.5895 53.2193 25.7922 53.7986 25.7922C54.4787 25.7922 55.008 25.5303 55.3866 25.0082C55.766 24.4853 55.9558 23.7959 55.9558 22.9392Z" fill="#332B26"/>
<path d="M67.1421 22.8733C67.1421 24.2521 66.7686 25.3419 66.0208 26.142C65.3525 26.8542 64.5217 27.2099 63.5299 27.2099C62.4594 27.2099 61.6904 26.8263 61.2229 26.0592H61.189V30.33H59.3833V21.5883C59.3833 20.7214 59.3604 19.8318 59.3164 18.9194H60.9044L61.0052 20.2044H61.0391C61.6404 19.2362 62.5543 18.7529 63.7815 18.7529C64.7394 18.7529 65.5397 19.1306 66.1817 19.8867C66.8211 20.6437 67.1421 21.6389 67.1421 22.8733ZM65.3026 22.9392C65.3026 22.1501 65.1239 21.4995 64.7665 20.9876C64.376 20.4536 63.8535 20.1866 63.1954 20.1866C62.7491 20.1866 62.3451 20.3353 61.9826 20.6285C61.6201 20.9242 61.3838 21.3103 61.2728 21.7885C61.2178 22.0115 61.189 22.194 61.189 22.3376V23.6894C61.189 24.2791 61.3702 24.7767 61.731 25.1831C62.0935 25.5886 62.5644 25.7922 63.1454 25.7922C63.8255 25.7922 64.3548 25.5303 64.7334 25.0082C65.1129 24.4853 65.3026 23.7959 65.3026 22.9392Z" fill="#332B26"/>
<path d="M77.5939 23.8732C77.5939 24.8296 77.261 25.6077 76.5928 26.2084C75.8585 26.8648 74.8363 27.1926 73.5227 27.1926C72.3098 27.1926 71.3376 26.9595 70.6016 26.4923L71.02 24.991C71.8127 25.4691 72.6825 25.7091 73.6302 25.7091C74.3103 25.7091 74.8396 25.5553 75.2199 25.2495C75.5985 24.9437 75.7874 24.5331 75.7874 24.0211C75.7874 23.5649 75.6315 23.1804 75.319 22.8687C75.0082 22.5569 74.489 22.2672 73.764 21.9993C71.7907 21.2652 70.8048 20.1897 70.8048 18.7754C70.8048 17.8511 71.1504 17.0933 71.8423 16.5036C72.5317 15.913 73.4515 15.6182 74.6017 15.6182C75.6273 15.6182 76.4793 15.7964 77.1594 16.1521L76.708 17.6205C76.0728 17.2758 75.3546 17.1034 74.5508 17.1034C73.9156 17.1034 73.4193 17.2597 73.0636 17.5706C72.763 17.8486 72.6122 18.1874 72.6122 18.5887C72.6122 19.0331 72.7841 19.4006 73.1297 19.6895C73.4303 19.9565 73.9766 20.2454 74.7694 20.5572C75.7391 20.9467 76.4514 21.402 76.9096 21.9241C77.3661 22.4446 77.5939 23.096 77.5939 23.8732Z" fill="#332B26"/>
<path d="M83.5628 20.2712H81.5725V24.2074C81.5725 25.2085 81.9231 25.7087 82.6261 25.7087C82.9488 25.7087 83.2164 25.6808 83.4281 25.6251L83.4781 26.9929C83.1224 27.1255 82.654 27.1923 82.0739 27.1923C81.3607 27.1923 80.8035 26.9751 80.4012 26.5417C80.0006 26.1075 79.799 25.3792 79.799 24.3561V20.2695H78.6133V18.9178H79.799V17.4334L81.5725 16.8994V18.9178H83.5628V20.2712Z" fill="#332B26"/>
<path d="M92.5444 22.9064C92.5444 24.1525 92.187 25.1756 91.4738 25.9757C90.726 26.7994 89.7334 27.21 88.496 27.21C87.3035 27.21 86.3541 26.8155 85.646 26.0264C84.938 25.2373 84.584 24.2412 84.584 23.0407C84.584 21.7844 84.9482 20.7554 85.6791 19.9553C86.4083 19.1544 87.3924 18.7539 88.6298 18.7539C89.8223 18.7539 90.7819 19.1485 91.506 19.9384C92.1988 20.7047 92.5444 21.694 92.5444 22.9064ZM90.6709 22.9647C90.6709 22.217 90.5109 21.5757 90.1865 21.0409C89.8079 20.3938 89.2667 20.071 88.5654 20.071C87.8396 20.071 87.2883 20.3946 86.9097 21.0409C86.5853 21.5766 86.4252 22.2279 86.4252 22.9984C86.4252 23.7461 86.5853 24.3874 86.9097 24.9213C87.3001 25.5685 87.8455 25.8912 88.5494 25.8912C89.2388 25.8912 89.78 25.5617 90.1704 24.9044C90.5032 24.3595 90.6709 23.7115 90.6709 22.9647Z" fill="#332B26"/>
<path d="M98.4126 20.5035C98.2339 20.4705 98.0434 20.4536 97.8435 20.4536C97.2083 20.4536 96.7171 20.6927 96.3715 21.1717C96.0708 21.5942 95.9201 22.1281 95.9201 22.7727V27.0266H94.1153L94.1322 21.4725C94.1322 20.5381 94.1093 19.6873 94.0645 18.9202H95.6372L95.7033 20.4714H95.7532C95.9438 19.9383 96.2445 19.5091 96.6561 19.1872C97.0584 18.8974 97.4929 18.7529 97.9612 18.7529C98.1281 18.7529 98.2788 18.7648 98.4126 18.7859V20.5035Z" fill="#332B26"/>
<path d="M106.488 22.589C106.488 22.9117 106.467 23.1838 106.422 23.406H101.005C101.026 24.2069 101.288 24.8194 101.791 25.2418C102.248 25.6195 102.838 25.8087 103.563 25.8087C104.365 25.8087 105.097 25.6811 105.755 25.4252L106.038 26.6755C105.269 27.0101 104.361 27.1765 103.313 27.1765C102.053 27.1765 101.064 26.8065 100.344 26.0672C99.6256 25.328 99.2656 24.3353 99.2656 23.09C99.2656 21.8675 99.6002 20.8494 100.27 20.0375C100.971 19.1707 101.919 18.7373 103.112 18.7373C104.283 18.7373 105.17 19.1707 105.772 20.0375C106.249 20.7261 106.488 21.5777 106.488 22.589ZM104.766 22.1218C104.778 21.5878 104.661 21.1265 104.416 20.7371C104.103 20.2361 103.623 19.986 102.977 19.986C102.387 19.986 101.906 20.2302 101.54 20.7202C101.239 21.1097 101.06 21.5769 101.005 22.1209H104.766V22.1218Z" fill="#332B26"/>
<path d="M40.5261 6.95261L40.0505 6.57715C40.4135 6.03901 40.9516 5.76367 41.6524 5.76367C42.153 5.76367 42.5535 5.88882 42.8289 6.15164C43.1167 6.41446 43.2669 6.75237 43.2669 7.17788C43.2669 7.45321 43.1918 7.691 43.0541 7.90376C42.9165 8.104 42.7287 8.25418 42.5035 8.36681C42.8664 8.45442 43.1417 8.62963 43.3295 8.89244C43.5297 9.15526 43.6173 9.46814 43.6173 9.81856C43.6173 10.3943 43.3795 10.8573 42.9165 11.1827C42.5535 11.433 42.1405 11.5456 41.6399 11.5456C41.1268 11.5456 40.7138 11.4205 40.3759 11.1577C40.038 10.8949 39.7877 10.582 39.625 10.2065L40.2257 9.94371C40.3384 10.2566 40.5261 10.5069 40.7764 10.6946C41.0392 10.8823 41.3271 10.97 41.665 10.97C42.0029 10.97 42.2907 10.8949 42.516 10.7322C42.8163 10.5194 42.9665 10.219 42.9665 9.83108C42.9665 9.1052 42.4659 8.72975 41.4772 8.72975H40.9766V8.14154H41.4772C41.8402 8.14154 42.128 8.05394 42.3283 7.87872C42.5285 7.70351 42.6161 7.47824 42.6161 7.20291C42.6161 6.96512 42.541 6.76488 42.3908 6.6147C42.2281 6.43949 41.9778 6.35188 41.6399 6.35188C41.1894 6.35188 40.8139 6.55212 40.5261 6.95261ZM47.2717 8.46694V7.97884H47.8724V11.458H47.2717V10.97C46.9714 11.3579 46.5709 11.5582 46.0828 11.5582C45.6197 11.5582 45.2192 11.3955 44.8813 11.0701C44.5559 10.7447 44.3932 10.2941 44.3932 9.71844C44.3932 9.14275 44.5559 8.70472 44.8813 8.39184C45.2067 8.06645 45.6072 7.90376 46.0828 7.90376C46.5834 7.89124 46.9839 8.07897 47.2717 8.46694ZM46.1579 8.42939C45.845 8.42939 45.5697 8.54202 45.3444 8.76729C45.1316 8.99257 45.019 9.30544 45.019 9.70593C45.019 10.0939 45.1191 10.4068 45.3194 10.6571C45.5321 10.8949 45.8075 11.02 46.1579 11.02C46.5083 11.02 46.7836 10.8949 46.9964 10.6446C47.2091 10.3943 47.3093 10.0814 47.3093 9.71844C47.3093 9.30545 47.1966 8.99257 46.9588 8.76729C46.7211 8.52951 46.4582 8.42939 46.1579 8.42939ZM49.0238 11.4455V7.96633H51.0888V8.51699H49.6371V11.4455H49.0238ZM52.2903 10.9574V13.3979H51.6895V7.96633H52.2903V8.45442C52.6031 8.07896 52.9911 7.87872 53.4792 7.87872C53.9923 7.87872 54.4053 8.06645 54.7057 8.42939C55.0186 8.79232 55.1687 9.21784 55.1687 9.71844C55.1687 10.219 55.0186 10.6571 54.7182 11.0075C54.4178 11.3579 54.0174 11.5331 53.5042 11.5331C53.0036 11.5456 52.5906 11.3579 52.2903 10.9574ZM53.4291 11.0075C53.7671 11.0075 54.0424 10.8823 54.2551 10.6446C54.4679 10.3943 54.568 10.0939 54.568 9.73096C54.568 9.33047 54.4554 9.00508 54.2301 8.77981C54.0048 8.54203 53.742 8.42939 53.4291 8.42939C53.1288 8.42939 52.8534 8.54203 52.6282 8.77981C52.3904 9.0176 52.2778 9.33047 52.2778 9.73096C52.2778 10.0939 52.3779 10.4068 52.5906 10.6571C52.7909 10.8949 53.0787 11.0075 53.4291 11.0075ZM56.0698 13.4104L57.1962 11.1201L55.5943 7.96633H56.2826L57.5091 10.4568L58.6354 7.96633H59.3112L56.7331 13.3979H56.0698V13.4104ZM60.325 8.8549L59.912 8.51699C60.0496 8.31675 60.1998 8.17909 60.35 8.07897C60.5627 7.95381 60.8256 7.89124 61.1134 7.89124C61.4638 7.89124 61.7392 7.96633 61.9394 8.12903C62.1396 8.30424 62.2398 8.51699 62.2398 8.79233C62.2398 9.11772 62.1146 9.3555 61.8518 9.5182C62.0145 9.55574 62.1522 9.63083 62.2523 9.74347C62.415 9.91868 62.4901 10.1314 62.4901 10.3817C62.4901 10.7572 62.3399 11.0576 62.0395 11.2828C61.7892 11.458 61.4638 11.5456 61.0508 11.5456C60.6879 11.5456 60.375 11.4455 60.1247 11.2578C59.937 11.1201 59.7868 10.9199 59.6617 10.6571L60.1873 10.4443C60.2499 10.5945 60.35 10.7322 60.5002 10.8323C60.6503 10.9449 60.8506 11.0075 61.0759 11.0075C61.3387 11.0075 61.5389 10.9574 61.6641 10.8698C61.8268 10.7697 61.9019 10.607 61.9019 10.3817C61.9019 10.2065 61.8268 10.0689 61.6891 9.98126C61.5765 9.90617 61.3762 9.86862 61.1134 9.86862H60.763V9.31796H61.0508C61.2636 9.31796 61.4138 9.29293 61.5014 9.23035C61.6265 9.15526 61.6891 9.04263 61.6891 8.91747C61.6891 8.76729 61.639 8.64215 61.5389 8.55454C61.4388 8.46693 61.3011 8.42939 61.1009 8.42939C60.9257 8.42939 60.763 8.47945 60.6253 8.56705C60.4877 8.64214 60.4 8.74226 60.325 8.8549ZM63.4162 7.96633H64.0169V10.2566L66.3948 7.691V11.433H65.7941V9.11772L63.4162 11.6833V7.96633ZM69.8114 8.52951H68.7226V11.458H68.1219V8.52951H67.033V7.97884H69.8114V8.52951ZM73.0278 10.2816L73.5284 10.557C73.4157 10.7822 73.2656 10.97 73.1029 11.1201C72.79 11.408 72.402 11.5456 71.9515 11.5456C71.4884 11.5456 71.0754 11.3955 70.7375 11.0951C70.3996 10.7822 70.2369 10.3317 70.2369 9.73096C70.2369 9.20532 70.3871 8.7673 70.6874 8.41687C71.0003 8.06645 71.4008 7.89124 71.9139 7.89124C72.4896 7.89124 72.9277 8.104 73.228 8.52951C73.4658 8.86742 73.5659 9.30544 73.5534 9.83108H70.8501C70.8501 10.1815 70.9628 10.4693 71.1755 10.6821C71.3883 10.8949 71.6511 11.0075 71.9515 11.0075C72.2268 11.0075 72.4646 10.9199 72.6648 10.7572C72.8275 10.632 72.9402 10.4693 73.0278 10.2816ZM70.8877 9.33047H72.9277C72.8776 9.05514 72.7524 8.84239 72.5647 8.67969C72.377 8.51699 72.1642 8.42939 71.9014 8.42939C71.6511 8.42939 71.4258 8.51699 71.2256 8.6922C71.0504 8.8549 70.9378 9.06766 70.8877 9.33047ZM76.4319 7.96633H77.746C78.0588 7.96633 78.3091 8.02891 78.4718 8.16657C78.6721 8.32927 78.7722 8.54202 78.7722 8.81736C78.7722 9.11772 78.647 9.3555 78.3967 9.5182C78.572 9.56826 78.7096 9.64335 78.8348 9.75599C79.0225 9.9312 79.1101 10.1565 79.1101 10.4318C79.1101 10.7697 78.985 11.0325 78.7472 11.2203C78.5469 11.3704 78.2716 11.458 77.9212 11.458H76.4194V7.96633H76.4319ZM77.0451 9.39305H77.6834C77.8461 9.39305 77.9712 9.35551 78.0714 9.29293C78.184 9.20533 78.2341 9.09269 78.2341 8.92999C78.2341 8.79233 78.184 8.67969 78.0714 8.59208C77.9837 8.54202 77.8211 8.50448 77.5833 8.50448H77.0451V9.39305ZM77.0451 10.9074H77.796C78.0588 10.9074 78.2341 10.8698 78.3467 10.7947C78.4844 10.6946 78.5469 10.5695 78.5469 10.4068C78.5469 10.2441 78.4844 10.1064 78.3717 10.0188C78.2591 9.9312 78.0839 9.89365 77.8336 9.89365H77.0576V10.9074H77.0451Z" fill="#332B26"/>
</svg>
