<svg width="756" height="47" viewBox="0 0 756 47" fill="none" xmlns="http://www.w3.org/2000/svg">
<path d="M0 23.3789C0 20.6175 2.23858 18.3789 5 18.3789H757V28.3789H5.00001C2.23858 28.3789 0 26.1403 0 23.3789Z" fill="#83BBBA"/>
<path fill-rule="evenodd" clip-rule="evenodd" d="M715.998 40.5218C725.494 40.5218 733.143 32.8958 733.143 23.396C733.143 13.8961 725.494 6.23608 715.998 6.23608C706.506 6.23608 698.857 13.8961 698.857 23.396C698.857 32.8958 706.506 40.5218 715.998 40.5218Z" fill="#83BBBA"/>
<path d="M707.133 30.4653H714.908L715.725 28.302H712.459V16.1796H707.337V18.3428H710.031V28.302H707.133V30.4653Z" fill="white"/>
<path d="M717.397 30.4653H725.172L725.989 28.302H722.723V16.1796H717.601V18.3428H720.295V28.302H717.397V30.4653Z" fill="white"/>
<rect x="696" y="3.37891" width="40" height="40" rx="20" stroke="white" stroke-width="6"/>
</svg>
