<svg width="120" height="36" viewBox="0 0 120 36" fill="none" xmlns="http://www.w3.org/2000/svg">
<path d="M115.556 0.70936C116.546 0.70936 117.495 1.10172 118.195 1.80013C118.896 2.49855 119.289 3.44579 119.289 4.4335V31.0345C119.289 32.0222 118.896 32.9694 118.195 33.6678C117.495 34.3663 116.546 34.7586 115.556 34.7586H4.44444C3.4543 34.7586 2.50471 34.3663 1.80458 33.6678C1.10444 32.9694 0.711111 32.0222 0.711111 31.0345V4.4335C0.711111 3.44579 1.10444 2.49855 1.80458 1.80013C2.50471 1.10172 3.4543 0.70936 4.44444 0.70936H115.556ZM115.556 0H4.44444C3.2657 0 2.13524 0.467099 1.30175 1.29854C0.468253 2.12998 0 3.25766 0 4.4335V31.0345C0 32.2103 0.468253 33.338 1.30175 34.1694C2.13524 35.0009 3.2657 35.468 4.44444 35.468H115.556C116.734 35.468 117.865 35.0009 118.698 34.1694C119.532 33.338 120 32.2103 120 31.0345V4.4335C120 3.25766 119.532 2.12998 118.698 1.29854C117.865 0.467099 116.734 0 115.556 0Z" fill="#332B26"/>
<path d="M60.5675 19.2866C59.8211 19.2901 59.0924 19.5141 58.4735 19.9303C57.8546 20.3465 57.3732 20.9363 57.0899 21.6252C56.8067 22.3141 56.7345 23.0712 56.8822 23.801C57.03 24.5309 57.3912 25.2007 57.9202 25.726C58.4493 26.2512 59.1224 26.6084 59.8547 26.7524C60.5871 26.8963 61.3457 26.8207 62.035 26.5349C62.7243 26.2492 63.3132 25.7662 63.7276 25.1468C64.1419 24.5275 64.363 23.7996 64.363 23.055C64.3703 22.5567 64.2769 22.0619 64.0885 21.6003C63.9001 21.1386 63.6205 20.7195 63.2664 20.3679C62.9122 20.0163 62.4908 19.7393 62.0271 19.5536C61.5634 19.3678 61.067 19.277 60.5675 19.2866ZM60.5675 25.3427C60.1084 25.3748 59.6503 25.2683 59.2528 25.0372C58.8552 24.806 58.5365 24.461 58.3381 24.0468C58.1398 23.6326 58.0709 23.1684 58.1405 22.7147C58.2101 22.2609 58.4149 21.8386 58.7283 21.5025C59.0417 21.1664 59.4493 20.9321 59.8979 20.8301C60.3466 20.7281 60.8156 20.7631 61.2441 20.9306C61.6725 21.098 62.0406 21.3902 62.3004 21.7691C62.5602 22.1479 62.6997 22.596 62.7008 23.055C62.7151 23.3459 62.6709 23.6367 62.5708 23.9102C62.4707 24.1837 62.3166 24.4345 62.1178 24.6477C61.919 24.8609 61.6794 25.0323 61.4131 25.1516C61.1468 25.271 60.8593 25.336 60.5675 25.3427ZM52.2919 19.2866C51.5451 19.2883 50.8156 19.5108 50.1955 19.926C49.5754 20.3411 49.0926 20.9303 48.808 21.619C48.5235 22.3078 48.4499 23.0652 48.5967 23.7957C48.7435 24.5261 49.104 25.1967 49.6326 25.7229C50.1613 26.249 50.8345 26.6071 51.567 26.7517C52.2996 26.8964 53.0588 26.8213 53.7485 26.5358C54.4383 26.2503 55.0278 25.7673 55.4425 25.1478C55.8572 24.5282 56.0786 23.8 56.0786 23.055C56.0858 22.5567 55.9925 22.0619 55.8041 21.6003C55.6157 21.1386 55.3361 20.7195 54.9819 20.3679C54.6278 20.0163 54.2063 19.7393 53.7427 19.5536C53.279 19.3678 52.7826 19.277 52.283 19.2866H52.2919ZM52.2919 25.3427C51.8326 25.3766 51.3738 25.2717 50.9751 25.0417C50.5765 24.8118 50.2564 24.4675 50.0567 24.0535C49.8569 23.6396 49.7867 23.1753 49.8552 22.721C49.9237 22.2668 50.1277 21.8436 50.4406 21.5066C50.7536 21.1696 51.161 20.9344 51.6098 20.8316C52.0587 20.7288 52.5281 20.7632 52.9571 20.9302C53.3861 21.0973 53.7547 21.3893 54.015 21.7683C54.2752 22.1473 54.4151 22.5957 54.4164 23.055C54.4307 23.3459 54.3865 23.6367 54.2863 23.9102C54.1862 24.1837 54.0322 24.4345 53.8334 24.6477C53.6345 24.8609 53.3949 25.0323 53.1287 25.1516C52.8624 25.271 52.5749 25.336 52.283 25.3427H52.2919ZM42.4341 20.4481V22.0442H46.2741C46.2139 22.796 45.9007 23.5053 45.3852 24.057C45.0011 24.4474 44.5392 24.7532 44.0294 24.9548C43.5196 25.1563 42.9732 25.2492 42.4252 25.2275C41.2936 25.2275 40.2084 24.779 39.4082 23.9809C38.6081 23.1827 38.1586 22.1001 38.1586 20.9713C38.1586 19.8425 38.6081 18.7599 39.4082 17.9617C40.2084 17.1636 41.2936 16.7151 42.4252 16.7151C43.5077 16.6975 44.553 17.1089 45.3319 17.859L46.4608 16.7329C45.935 16.2018 45.3077 15.7813 44.616 15.4965C43.9243 15.2117 43.1824 15.0683 42.4341 15.0747C41.6439 15.0441 40.8556 15.1728 40.1165 15.4533C39.3773 15.7338 38.7025 16.1603 38.1326 16.7072C37.5626 17.254 37.1092 17.91 36.7995 18.6359C36.4897 19.3618 36.3301 20.1425 36.3301 20.9314C36.3301 21.7203 36.4897 22.501 36.7995 23.2269C37.1092 23.9527 37.5626 24.6088 38.1326 25.1556C38.7025 25.7025 39.3773 26.129 40.1165 26.4095C40.8556 26.69 41.6439 26.8187 42.4341 26.788C43.195 26.8223 43.9544 26.6937 44.6612 26.4107C45.368 26.1278 46.0059 25.6971 46.5319 25.1477C47.4632 24.127 47.9604 22.7853 47.9186 21.4058C47.9214 21.0697 47.8917 20.7342 47.8297 20.4038L42.4341 20.4481ZM82.7097 21.6895C82.4779 21.0092 82.0444 20.4151 81.4666 19.986C80.8888 19.5569 80.194 19.313 79.4741 19.2866C78.9879 19.2856 78.5067 19.3842 78.0601 19.5761C77.6136 19.768 77.2113 20.0493 76.878 20.4025C76.5448 20.7557 76.2877 21.1733 76.1227 21.6296C75.9576 22.0858 75.8882 22.571 75.9186 23.055C75.9078 23.5506 75.9972 24.0433 76.1816 24.5036C76.3659 24.964 76.6414 25.3825 76.9915 25.7343C77.3416 26.086 77.7593 26.3638 78.2194 26.5509C78.6796 26.7381 79.1728 26.8308 79.6697 26.8235C80.2915 26.8269 80.9044 26.6763 81.4535 26.3854C82.0027 26.0945 82.4709 25.6723 82.8164 25.1565L81.5275 24.2698C81.3351 24.5897 81.0628 24.8543 80.7371 25.0377C80.4115 25.2211 80.0437 25.3171 79.6697 25.3161C79.2846 25.3308 78.9041 25.2295 78.5775 25.0255C78.251 24.8215 77.9935 24.5242 77.8386 24.1723L82.8964 22.0885L82.7097 21.6895ZM77.5541 22.9486C77.5361 22.6744 77.5731 22.3993 77.663 22.1395C77.7529 21.8797 77.8939 21.6404 78.0777 21.4356C78.2614 21.2308 78.4843 21.0646 78.7333 20.9468C78.9822 20.8291 79.2522 20.762 79.5275 20.7496C79.8142 20.7308 80.1002 20.7964 80.3498 20.9382C80.5995 21.0801 80.8019 21.292 80.9319 21.5477L77.5541 22.9486ZM73.4475 26.6018H75.1097V15.5181H73.4475V26.6018ZM70.7275 20.1289H70.6652C70.4147 19.8495 70.1078 19.6261 69.7647 19.4733C69.4216 19.3205 69.0499 19.2417 68.6741 19.2422C67.7027 19.2892 66.7867 19.7072 66.1159 20.4096C65.4451 21.1121 65.0709 22.045 65.0709 23.0151C65.0709 23.9853 65.4451 24.9182 66.1159 25.6206C66.7867 26.323 67.7027 26.7411 68.6741 26.788C69.0508 26.7944 69.4243 26.7182 69.7683 26.5651C70.1123 26.4119 70.4185 26.1853 70.6652 25.9013H70.7186V26.4422C70.7186 27.8876 69.9452 28.659 68.7008 28.659C68.2863 28.6493 67.8841 28.5168 67.5454 28.2784C67.2066 28.0399 66.9467 27.7064 66.7986 27.3201L65.3497 27.923C65.6224 28.5848 66.0871 29.1502 66.6842 29.5468C67.2813 29.9433 67.9835 30.1529 68.7008 30.1486C70.6475 30.1486 72.2564 29.0048 72.2564 26.2206V19.5082H70.7275V20.1289ZM68.8252 25.3427C68.2519 25.2923 67.7182 25.0295 67.3295 24.606C66.9407 24.1826 66.7251 23.6292 66.7251 23.055C66.7251 22.4809 66.9407 21.9275 67.3295 21.5041C67.7182 21.0806 68.2519 20.8178 68.8252 20.7674C69.1095 20.7819 69.388 20.8531 69.6443 20.9767C69.9006 21.1002 70.1295 21.2737 70.3176 21.4869C70.5056 21.7001 70.6489 21.9487 70.7392 22.218C70.8294 22.4873 70.8647 22.7719 70.843 23.055C70.8673 23.3394 70.8335 23.6257 70.7436 23.8967C70.6538 24.1676 70.5098 24.4176 70.3203 24.6314C70.1309 24.8453 69.8999 25.0185 69.6414 25.1408C69.3829 25.2631 69.1022 25.3318 68.8163 25.3427H68.8252ZM90.4964 15.5181H86.523V26.6018H88.1852V22.3989H90.5052C90.979 22.4328 91.4546 22.3691 91.9026 22.2116C92.3505 22.054 92.7611 21.8062 93.1088 21.4834C93.4565 21.1606 93.7338 20.7698 93.9234 20.3354C94.1129 19.901 94.2108 19.4323 94.2108 18.9585C94.2108 18.4847 94.1129 18.016 93.9234 17.5816C93.7338 17.1472 93.4565 16.7564 93.1088 16.4336C92.7611 16.1108 92.3505 15.8629 91.9026 15.7054C91.4546 15.5479 90.979 15.4841 90.5052 15.5181H90.4964ZM90.4964 20.8383H88.1763V17.061H90.5319C91.0376 17.061 91.5226 17.2613 91.8801 17.618C92.2377 17.9747 92.4386 18.4585 92.4386 18.9629C92.4386 19.4674 92.2377 19.9511 91.8801 20.3078C91.5226 20.6645 91.0376 20.8649 90.5319 20.8649L90.4964 20.8383ZM100.745 19.2422C100.14 19.2062 99.5376 19.3472 99.0117 19.6481C98.4859 19.949 98.0596 20.3966 97.7852 20.9358L99.2608 21.5477C99.4063 21.2802 99.6266 21.0607 99.8949 20.9158C100.163 20.771 100.468 20.7071 100.772 20.7319C100.983 20.7073 101.197 20.7249 101.401 20.7836C101.605 20.8423 101.795 20.941 101.961 21.0739C102.126 21.2068 102.264 21.3712 102.365 21.5576C102.466 21.744 102.529 21.9486 102.55 22.1595V22.2747C102.016 21.9928 101.42 21.8466 100.816 21.8491C99.2252 21.8491 97.6164 22.7358 97.6164 24.3408C97.6321 24.683 97.7164 25.0186 97.8643 25.3277C98.0123 25.6368 98.2209 25.9132 98.4778 26.1406C98.7347 26.3679 99.0347 26.5416 99.36 26.6512C99.6854 26.7609 100.029 26.8044 100.372 26.7792C100.791 26.8092 101.209 26.7262 101.585 26.539C101.96 26.3518 102.278 26.0672 102.505 25.7151H102.559V26.6018H104.159V22.3368C104.159 20.3949 102.683 19.2688 100.79 19.2688L100.745 19.2422ZM100.541 25.3161C99.9986 25.3161 99.243 25.0413 99.243 24.3762C99.243 23.4895 100.185 23.1969 101.021 23.1969C101.549 23.1839 102.071 23.3125 102.532 23.5693C102.476 24.0494 102.249 24.4932 101.891 24.8191C101.533 25.145 101.07 25.331 100.585 25.3427L100.541 25.3161ZM109.99 19.5082L108.087 24.3142H108.034L106.061 19.5082H104.283L107.243 26.2294L105.554 29.9624H107.287L111.839 19.5082H109.99ZM95.0475 26.6018H96.7097V15.5181H95.0475V26.6018Z" fill="#332B26"/>
<path d="M37.4303 12.6537H36.7725V10.8803H37.3325C37.5878 10.6103 37.7807 10.2878 37.8974 9.93543C38.0141 9.58304 38.0519 9.20939 38.008 8.84085V6.20736H41.5636V10.8714H42.1592V12.6448H41.5014V11.5276H37.4303V12.6537ZM38.6658 8.86746C38.7073 9.5827 38.5306 10.2937 38.1592 10.9069H40.8258V6.86351H38.6658V8.86746ZM47.4747 10.8359C46.9551 11.3514 46.252 11.6408 45.5191 11.6408C44.7863 11.6408 44.0832 11.3514 43.5636 10.8359C43.0585 10.3026 42.7771 9.59671 42.7771 8.86302C42.7771 8.12933 43.0585 7.42345 43.5636 6.89012C43.8197 6.63275 44.1244 6.42848 44.46 6.28908C44.7956 6.14969 45.1556 6.07793 45.5191 6.07793C45.8827 6.07793 46.2427 6.14969 46.5783 6.28908C46.9139 6.42848 47.2186 6.63275 47.4747 6.89012C47.9818 7.42243 48.2646 8.1287 48.2646 8.86302C48.2646 9.59735 47.9818 10.3036 47.4747 10.8359ZM44.0703 10.3926C44.4551 10.7749 44.9761 10.9895 45.5191 10.9895C46.0622 10.9895 46.5832 10.7749 46.968 10.3926C47.3478 9.97496 47.5582 9.4313 47.5582 8.86746C47.5582 8.30361 47.3478 7.75995 46.968 7.34233C46.5832 6.96006 46.0622 6.74543 45.5191 6.74543C44.9761 6.74543 44.4551 6.96006 44.0703 7.34233C43.6905 7.75995 43.4801 8.30361 43.4801 8.86746C43.4801 9.4313 43.6905 9.97496 44.0703 10.3926ZM51.7147 11.6428C51.3477 11.6501 50.9831 11.5832 50.6428 11.4462C50.3024 11.3092 49.9934 11.1049 49.7342 10.8456C49.4751 10.5863 49.2713 10.2773 49.135 9.93739C48.9988 9.59743 48.9329 9.23348 48.9414 8.86746C48.9329 8.50143 48.9988 8.13748 49.135 7.79752C49.2713 7.45756 49.4751 7.14863 49.7342 6.88933C49.9934 6.63003 50.3024 6.42572 50.6428 6.2887C50.9831 6.15169 51.3477 6.08481 51.7147 6.09209C52.0866 6.0829 52.4558 6.15791 52.7945 6.31149C53.1332 6.46506 53.4326 6.69321 53.6703 6.97879L53.1903 7.43987C53.0147 7.21753 52.7883 7.04033 52.5301 6.9231C52.2718 6.80586 51.9892 6.75199 51.7058 6.76598C51.433 6.7589 51.1615 6.80712 50.9079 6.90771C50.6543 7.0083 50.4237 7.15917 50.2303 7.3512C49.8449 7.77132 49.6311 8.32015 49.6311 8.88962C49.6311 9.45909 49.8449 10.0079 50.2303 10.428C50.4237 10.6201 50.6543 10.7709 50.9079 10.8715C51.1615 10.9721 51.433 11.0203 51.7058 11.0133C52.0187 11.0105 52.327 10.9382 52.6084 10.8017C52.8898 10.6652 53.1371 10.4679 53.3325 10.2241L53.8125 10.7029C53.5706 10.9956 53.2671 11.2318 52.9236 11.3945C52.5442 11.566 52.1312 11.6508 51.7147 11.6428ZM56.6036 11.5276H55.9192V6.86351H54.4258V6.20736H58.088V6.86351H56.6036V11.5276ZM62.7992 6.20736L60.7814 10.6941C60.7006 10.9595 60.5392 11.1933 60.3195 11.3633C60.0997 11.5332 59.8325 11.6309 59.5547 11.6428C59.371 11.6405 59.1896 11.6013 59.0214 11.5276L59.1991 10.898C59.3072 10.9607 59.4297 10.9944 59.5547 10.9955C59.6854 11.0054 59.8158 10.9744 59.928 10.9069C60.0351 10.8164 60.1177 10.7006 60.168 10.5699L60.3636 10.1443L58.5858 6.21622H59.3947L60.7103 9.26647L61.9903 6.20736H62.7992ZM63.5725 11.5276V6.20736H67.4303V11.5276H66.7458V6.86351H64.2569V11.5276H63.5725ZM68.648 11.5276V6.20736H69.3325V8.48617H71.9991V6.20736H72.6836V11.5276H71.9991V9.1246H69.3325V11.5276H68.648ZM78.2747 10.8359C77.7551 11.3514 77.052 11.6408 76.3191 11.6408C75.5863 11.6408 74.8832 11.3514 74.3636 10.8359C73.8585 10.3026 73.5771 9.59671 73.5771 8.86302C73.5771 8.12933 73.8585 7.42345 74.3636 6.89012C74.6197 6.63275 74.9244 6.42848 75.26 6.28908C75.5956 6.14969 75.9556 6.07793 76.3191 6.07793C76.6827 6.07793 77.0427 6.14969 77.3783 6.28908C77.7139 6.42848 78.0186 6.63275 78.2747 6.89012C78.7818 7.42243 79.0646 8.1287 79.0646 8.86302C79.0646 9.59735 78.7818 10.3036 78.2747 10.8359ZM74.8703 10.3926C75.2551 10.7749 75.7761 10.9895 76.3191 10.9895C76.8622 10.9895 77.3832 10.7749 77.768 10.3926C78.1478 9.97496 78.3582 9.4313 78.3582 8.86746C78.3582 8.30361 78.1478 7.75995 77.768 7.34233C77.3832 6.96006 76.8622 6.74543 76.3191 6.74543C75.7761 6.74543 75.2551 6.96006 74.8703 7.34233C74.4905 7.75995 74.2801 8.30361 74.2801 8.86746C74.2801 9.4313 74.4905 9.97496 74.8703 10.3926ZM81.8569 11.5276V6.20736H83.7858C84.1863 6.19981 84.5745 6.3458 84.8703 6.61524C85.0188 6.74382 85.1372 6.9034 85.2171 7.08267C85.2969 7.26194 85.3363 7.45653 85.3325 7.65268C85.3367 7.88904 85.2684 8.12104 85.1369 8.3177C85.0064 8.50872 84.8247 8.65928 84.6125 8.75219C84.8703 8.83733 85.0964 8.99801 85.2614 9.21327C85.4323 9.43051 85.5233 9.6997 85.5191 9.97583C85.5237 10.1802 85.483 10.3831 85.4001 10.5701C85.3171 10.7571 85.1939 10.9235 85.0391 11.0576C84.7296 11.3424 84.3224 11.4979 83.9014 11.4921L81.8569 11.5276ZM82.5414 8.48617H83.7858C83.902 8.49101 84.0179 8.47052 84.1254 8.4261C84.2328 8.38169 84.3293 8.31444 84.408 8.22903C84.4867 8.15785 84.5503 8.07158 84.5948 7.97537C84.6394 7.87917 84.664 7.775 84.6674 7.66907C84.6707 7.56315 84.6526 7.45765 84.6141 7.35885C84.5757 7.26006 84.5177 7.17001 84.4436 7.09406C84.3693 7.01024 84.2775 6.94375 84.1745 6.89931C84.0716 6.85488 83.9601 6.83357 83.848 6.83691H82.5769L82.5414 8.48617ZM82.5414 10.8714H83.9192C84.0395 10.8754 84.1593 10.8529 84.27 10.8054C84.3806 10.7578 84.4794 10.6865 84.5591 10.5965C84.7159 10.4344 84.8049 10.2188 84.808 9.99356C84.808 9.7584 84.7144 9.53286 84.5477 9.36657C84.381 9.20028 84.1549 9.10686 83.9192 9.10686H82.568L82.5414 10.8714Z" fill="#332B26"/>
<path fill-rule="evenodd" clip-rule="evenodd" d="M45.5191 6.1666C45.1673 6.1666 44.819 6.23605 44.4942 6.37094C44.1697 6.5057 43.8752 6.70311 43.6275 6.95181C43.1384 7.46858 42.866 8.15234 42.866 8.86302C42.866 9.57361 43.1384 10.2573 43.6273 10.774C44.1302 11.2724 44.8103 11.5521 45.5191 11.5521C46.2281 11.5521 46.9082 11.2723 47.4111 10.7739C47.902 10.2582 48.1757 9.5742 48.1757 8.86302C48.1757 8.15176 47.9019 7.46765 47.4109 6.9519C47.1632 6.70315 46.8686 6.50572 46.5441 6.37094C46.2193 6.23605 45.871 6.1666 45.5191 6.1666ZM44.4258 6.20723C44.7723 6.06334 45.1439 5.98926 45.5191 5.98926C45.8944 5.98926 46.266 6.06334 46.6125 6.20723C46.9589 6.35112 47.2734 6.56197 47.5378 6.82765L47.5392 6.82902C48.0619 7.37781 48.3534 8.10596 48.3534 8.86302C48.3534 9.62008 48.0619 10.3482 47.5391 10.897L47.5374 10.8988C47.0011 11.4308 46.2755 11.7294 45.5191 11.7294C44.7628 11.7294 44.0372 11.4308 43.5009 10.8988L43.4989 10.8968C42.9783 10.3471 42.6882 9.61936 42.6882 8.86302C42.6882 8.10669 42.9783 7.37901 43.499 6.82922L43.5005 6.82763C43.7649 6.56195 44.0794 6.35112 44.4258 6.20723ZM76.3192 6.1666C75.9673 6.1666 75.619 6.23605 75.2942 6.37094C74.9697 6.50569 74.6752 6.70308 74.4275 6.95176C73.9384 7.46854 73.666 8.15232 73.666 8.86302C73.666 9.57361 73.9384 10.2573 74.4273 10.774C74.9302 11.2724 75.6103 11.5521 76.3192 11.5521C77.0281 11.5521 77.7083 11.2723 78.2112 10.7739C78.702 10.2582 78.9757 9.57417 78.9757 8.86302C78.9757 8.15177 78.7019 7.46767 78.211 6.95192C77.9632 6.70317 77.6686 6.50572 77.3441 6.37094C77.0193 6.23605 76.671 6.1666 76.3192 6.1666ZM75.2258 6.20723C75.5723 6.06334 75.9439 5.98926 76.3192 5.98926C76.6944 5.98926 77.066 6.06334 77.4125 6.20723C77.7589 6.35112 78.0734 6.56197 78.3378 6.82765L78.3392 6.82902C78.8619 7.37783 79.1534 8.10596 79.1534 8.86302C79.1534 9.62008 78.8619 10.3482 78.3391 10.897L78.3374 10.8988C77.8011 11.4308 77.0755 11.7294 76.3192 11.7294C75.5628 11.7294 74.8372 11.4308 74.3009 10.8988L74.299 10.8968C73.7783 10.3471 73.4882 9.61936 73.4882 8.86302C73.4882 8.10669 73.7783 7.37901 74.299 6.82922L74.3005 6.82763C74.5649 6.56195 74.8794 6.35112 75.2258 6.20723ZM52.7577 6.39221C52.4313 6.24418 52.0754 6.17187 51.7169 6.18073L51.7129 6.18083C51.358 6.17379 51.0053 6.2384 50.676 6.37093C50.3468 6.50347 50.0478 6.7011 49.7972 6.95193C49.5466 7.20276 49.3494 7.50159 49.2176 7.83044C49.0858 8.15929 49.022 8.51135 49.0302 8.86541L49.0303 8.8695C49.0221 9.22357 49.0858 9.57562 49.2176 9.90447C49.3494 10.2333 49.5466 10.5322 49.7972 10.783C50.0478 11.0338 50.3468 11.2314 50.676 11.364C51.0053 11.4965 51.358 11.5612 51.7129 11.5542L51.7147 11.6428L51.7164 11.5542C52.1194 11.5619 52.519 11.4799 52.8862 11.3141C53.1933 11.1684 53.4673 10.962 53.6916 10.7077L53.3383 10.3553C53.1456 10.5746 52.9108 10.7536 52.6473 10.8814C52.3542 11.0236 52.0332 11.0989 51.7074 11.1019C51.4228 11.1092 51.1396 11.0589 50.8751 10.9539C50.6103 10.8489 50.3696 10.6914 50.1676 10.4909L50.1646 10.488C49.7642 10.0515 49.5422 9.48125 49.5422 8.88962C49.5422 8.29799 49.7643 7.7278 50.1647 7.29134L50.1675 7.28827C50.3695 7.08779 50.6103 6.93034 50.8751 6.82531C51.1388 6.7207 51.421 6.67035 51.7048 6.67725C52.0012 6.66315 52.2968 6.71976 52.5669 6.84239C52.8083 6.95198 53.0231 7.11145 53.1975 7.30984L53.5481 6.97304C53.3283 6.72683 53.0592 6.52888 52.7577 6.39221ZM51.7147 11.7315C51.3364 11.7388 50.9604 11.6697 50.6095 11.5284C50.258 11.3869 49.9389 11.176 49.6713 10.9082C49.4037 10.6404 49.1932 10.3214 49.0525 9.97031C48.9121 9.61988 48.844 9.24475 48.8525 8.86746C48.844 8.49016 48.9121 8.11504 49.0525 7.7646C49.1932 7.41354 49.4037 7.09451 49.6713 6.82673C49.9389 6.55895 50.258 6.34797 50.6095 6.20648C50.9604 6.06523 51.3362 5.99616 51.7145 6.0034C52.0992 5.99419 52.481 6.07192 52.8313 6.23076C53.1822 6.38989 53.4925 6.62627 53.7387 6.92215L53.7914 6.98553L53.1812 7.57168L53.1204 7.49474C52.9536 7.28351 52.7386 7.11518 52.4933 7.0038C52.2479 6.89243 51.9794 6.84125 51.7102 6.85454L51.7035 6.85487C51.4427 6.84811 51.1832 6.89395 50.9407 6.99011C50.6989 7.08601 50.4791 7.22972 50.2944 7.41259C49.9249 7.81616 49.72 8.343 49.72 8.88962C49.72 9.43624 49.9249 9.96308 50.2944 10.3667C50.4791 10.5495 50.6989 10.6932 50.9407 10.7891C51.1832 10.8853 51.4427 10.9314 51.7035 10.9246L51.705 10.9246C52.0047 10.9219 52.3 10.8527 52.5695 10.722C52.839 10.5912 53.0759 10.4022 53.2631 10.1687L53.3251 10.0913L53.9324 10.6972L53.8811 10.7593C53.6309 11.0621 53.317 11.3063 52.9617 11.4746L52.9603 11.4753C52.5693 11.652 52.1438 11.7395 51.7147 11.7315ZM84.8103 6.68072C84.5313 6.42659 84.1652 6.28889 83.7875 6.29601L83.7858 6.29603H81.9458V11.4373L83.8998 11.4034L83.9026 11.4034C84.3009 11.4089 84.6861 11.2618 84.9789 10.9924L84.9808 10.9906C85.1257 10.8651 85.2411 10.7093 85.3188 10.5342C85.3965 10.3592 85.4345 10.1692 85.4303 9.97779L85.4303 9.9745C85.4341 9.71868 85.3498 9.46928 85.1914 9.26801L85.1907 9.26711C85.0367 9.06601 84.8254 8.9159 84.5846 8.83636L84.3648 8.76379L84.5768 8.67099C84.7735 8.58484 84.9421 8.44527 85.0632 8.26819C85.1845 8.08661 85.2475 7.87243 85.2436 7.65424V7.65094C85.2472 7.46779 85.2104 7.28608 85.1358 7.11868C85.0612 6.95128 84.9507 6.80227 84.812 6.68221L84.8103 6.68072ZM84.9294 6.54904C84.6171 6.26494 84.2076 6.11094 83.785 6.11869H81.768V11.6178L83.9001 11.5807L83.9016 11.5808C84.3444 11.5865 84.7727 11.423 85.0984 11.1237C85.2626 10.9812 85.3933 10.8045 85.4813 10.606C85.5694 10.4076 85.6126 10.1924 85.6081 9.97553L85.608 9.97716L85.5191 9.97583L85.608 9.97387L85.6081 9.97553C85.6121 9.67985 85.5146 9.39167 85.3316 9.15895C85.1957 8.98167 85.0208 8.83916 84.8214 8.74173C84.9749 8.64539 85.1075 8.51824 85.2104 8.36764L85.2109 8.36691C85.3521 8.15568 85.4255 7.90658 85.4214 7.65274L85.4214 7.65441L85.3325 7.65268L85.4214 7.65112L85.4214 7.65274C85.4252 7.44417 85.3832 7.23729 85.2983 7.04666C85.2133 6.85587 85.0874 6.68601 84.9294 6.54904ZM37.9191 6.11869H41.6525V10.7827H42.248V12.7335H41.4125V11.6162H37.5192V12.7423H36.6836V10.7916H37.2937C37.5273 10.5369 37.7043 10.2356 37.813 9.90761C37.9256 9.56754 37.9621 9.20696 37.9198 8.85131L37.9191 8.8461V6.11869ZM38.0969 6.29603V8.83565C38.1413 9.21538 38.1021 9.60021 37.9818 9.96325C37.861 10.328 37.6614 10.6618 37.3971 10.9411L37.3708 10.9689H36.8614V12.565H37.3414V11.4389H41.5903V12.5561H42.0703V10.9601H41.4747V6.29603H38.0969ZM54.3369 6.11869H58.1769V6.95218H56.6925V11.6162H55.8303V6.95218H54.3369V6.11869ZM54.5147 6.29603V6.77484H56.008V11.4389H56.5147V6.77484H57.9991V6.29603H54.5147ZM61.931 6.11869H62.9365L60.8647 10.7253C60.7781 11.006 60.6067 11.2533 60.3739 11.4333C60.1396 11.6145 59.8547 11.7187 59.5585 11.7314L59.5536 11.7316C59.3579 11.7291 59.1648 11.6873 58.9856 11.6087L58.9149 11.5777L59.1447 10.7638L59.2439 10.8214C59.3386 10.8764 59.446 10.9058 59.5555 10.9069L59.5614 10.9069C59.6713 10.9152 59.781 10.89 59.8761 10.8345C59.9691 10.7544 60.0409 10.6526 60.0851 10.5381L60.0871 10.5329L60.2659 10.144L58.4482 6.12755H59.4532L60.709 9.03923L61.931 6.11869ZM62.0495 6.29603L60.7115 9.49371L59.3362 6.30489H58.7235L60.4613 10.1446L60.25 10.6044C60.1942 10.7479 60.1032 10.8751 59.9855 10.9745L59.98 10.9791L59.9739 10.9828C59.8468 11.0593 59.699 11.0947 59.551 11.0842C59.4494 11.0828 59.3493 11.0625 59.2558 11.0244L59.1285 11.4751C59.2645 11.5252 59.4081 11.552 59.5534 11.5541C59.8119 11.5425 60.0605 11.4514 60.265 11.2932C60.4702 11.1345 60.6209 10.9161 60.6963 10.6683L60.698 10.6629L62.6618 6.29603H62.0495ZM63.4836 6.11869H67.5191V11.6162H66.6569V6.95218H64.3458V11.6162H63.4836V6.11869ZM63.6614 6.29603V11.4389H64.168V6.77484H66.8347V11.4389H67.3414V6.29603H63.6614ZM68.5592 6.11869H69.4214V8.3975H71.9103V6.11869H72.7725V11.6162H71.9103V9.21327H69.4214V11.6162H68.5592V6.11869ZM68.7369 6.29603V11.4389H69.2436V9.03593H72.088V11.4389H72.5947V6.29603H72.088V8.57484H69.2436V6.29603H68.7369ZM44.0075 7.2795C44.409 6.88068 44.9525 6.65676 45.5191 6.65676C46.0858 6.65676 46.6293 6.88068 47.0308 7.2795L47.034 7.28268C47.4286 7.71661 47.6471 8.28159 47.6471 8.86746C47.6471 9.45332 47.4285 10.0182 47.0339 10.4522L47.0308 10.4555C46.6294 10.8543 46.0858 11.0782 45.5191 11.0782C44.9525 11.0782 44.409 10.8542 44.0075 10.4554L44.0703 10.3926L44.0044 10.4522C43.6098 10.0182 43.3912 9.45332 43.3912 8.86746C43.3912 8.28159 43.6098 7.71669 44.0044 7.28276L44.0075 7.2795ZM44.1346 10.3313C44.5026 10.6961 45.0003 10.9008 45.5191 10.9008C46.038 10.9008 46.5357 10.6961 46.9037 10.3313C47.2677 9.93025 47.4693 9.40852 47.4693 8.86746C47.4693 8.32639 47.2677 7.80466 46.9037 7.40358C46.5357 7.03884 46.038 6.8341 45.5191 6.8341C45.0003 6.8341 44.5026 7.03884 44.1346 7.40358C43.7706 7.80466 43.569 8.32639 43.569 8.86746C43.569 9.40852 43.7706 9.93025 44.1346 10.3313ZM74.8075 7.2795C75.209 6.88068 75.7526 6.65676 76.3192 6.65676C76.8858 6.65676 77.4293 6.88068 77.8308 7.2795L77.834 7.28268C78.2286 7.71661 78.4471 8.28159 78.4471 8.86746C78.4471 9.45332 78.2285 10.0182 77.8339 10.4522L77.8308 10.4555C77.4294 10.8543 76.8858 11.0782 76.3192 11.0782C75.7526 11.0782 75.209 10.8542 74.8075 10.4554L74.8703 10.3926L74.8044 10.4522C74.4098 10.0182 74.1912 9.45332 74.1912 8.86746C74.1912 8.28159 74.4098 7.71669 74.8044 7.28276L74.8075 7.2795ZM74.9346 10.3313C75.3026 10.6961 75.8003 10.9008 76.3192 10.9008C76.838 10.9008 77.3357 10.6961 77.7037 10.3313C78.0677 9.93026 78.2693 9.40853 78.2693 8.86746C78.2693 8.32638 78.0677 7.80465 77.7037 7.40357C77.3357 7.03884 76.838 6.8341 76.3192 6.8341C75.8003 6.8341 75.3026 7.03884 74.9346 7.40357C74.5706 7.80465 74.369 8.32638 74.369 8.86746C74.369 9.40853 74.5706 9.93026 74.9346 10.3313ZM83.8468 6.74824C83.9714 6.74473 84.0954 6.76851 84.2098 6.81794C84.3241 6.86727 84.4261 6.94095 84.5088 7.03378C84.5905 7.11794 84.6545 7.21756 84.697 7.32677C84.7397 7.43666 84.7599 7.55402 84.7562 7.67184C84.7525 7.78966 84.7251 7.90554 84.6755 8.01256C84.6265 8.11836 84.5569 8.21335 84.4707 8.29201C84.3837 8.38551 84.2776 8.45919 84.1594 8.50802C84.0406 8.55713 83.9125 8.57992 83.784 8.57484H82.4506L82.4899 6.74824H83.8468ZM84.1392 6.98069C84.0483 6.94142 83.9498 6.92259 83.8507 6.92554L83.848 6.92558H82.6639L82.6322 8.3975H83.7895C83.8928 8.40181 83.9958 8.38366 84.0914 8.34419C84.1869 8.30471 84.2726 8.24493 84.3426 8.16901L84.3453 8.16605L84.3483 8.16335C84.4182 8.10016 84.4746 8.02358 84.5141 7.93819C84.5537 7.85279 84.5756 7.76033 84.5785 7.6663C84.5815 7.57228 84.5654 7.47863 84.5313 7.39094C84.4971 7.30325 84.4457 7.22331 84.3799 7.1559L84.3769 7.15285C84.3113 7.07878 84.2302 7.01996 84.1392 6.98069ZM38.5769 6.77484H40.9147V10.9955H38.0016L38.0831 10.861C38.4453 10.2632 38.6175 9.56994 38.5771 8.87258L38.5768 8.86746L38.5769 6.77484ZM38.7547 6.95218V8.86491C38.7937 9.54543 38.64 10.2221 38.3129 10.8182H40.7369V6.95218H38.7547ZM82.4805 9.01819H83.9192C84.1785 9.01819 84.4272 9.12096 84.6105 9.30387C84.7939 9.48679 84.8969 9.73488 84.8969 9.99356L84.8969 9.99481C84.8934 10.242 84.796 10.4785 84.6244 10.6567C84.5362 10.7558 84.4272 10.8344 84.3051 10.8868C84.1829 10.9393 84.0507 10.9643 83.9177 10.9601H82.4511L82.4805 9.01819ZM82.6556 9.19553L82.6316 10.7827H83.9221C84.0294 10.7863 84.1362 10.7663 84.2348 10.7239C84.3334 10.6816 84.4214 10.618 84.4926 10.5378L84.4951 10.5349C84.636 10.3891 84.7161 10.1954 84.7192 9.99292C84.719 9.7815 84.6347 9.57878 84.4848 9.42927C84.3348 9.27961 84.1313 9.19553 83.9192 9.19553H82.6556Z" fill="#332B26"/>
<path d="M9.37148 28.9935L20.2609 17.7269L9.38061 6.48047C9.09 6.65556 8.91016 7.06097 8.91016 7.59165V27.8931C8.91405 28.4238 9.08739 28.7996 9.37148 28.9935Z" fill="#332B26"/>
<path d="M20.651 17.4155L23.8946 14.0591L10.6855 6.56508C10.4631 6.43137 10.2104 6.36074 9.95312 6.36035L20.6497 17.4142L20.651 17.4155Z" fill="#332B26"/>
<path d="M20.6503 18.0391L9.91992 29.1414C10.1892 29.146 10.4545 29.0733 10.6862 28.9313L23.9213 21.417L20.6503 18.0391Z" fill="#332B26"/>
<path d="M28.681 16.7787L24.2854 14.2803L20.9531 17.7283L24.3101 21.1978L28.6797 18.7061C29.6089 18.1768 29.6088 17.3054 28.681 16.7787Z" fill="#332B26"/>
</svg>
